<svg width="32" height="32" viewBox="0 0 32 32" fill="none" xmlns="http://www.w3.org/2000/svg">
<g id="Iconsax/Linear/colorswatch">
<path id="Vector" d="M13.3333 6V24C13.3333 25.44 12.7467 26.76 11.8133 27.72L11.76 27.7733C11.64 27.8933 11.5067 28.0133 11.3867 28.1067C10.9867 28.4533 10.5333 28.72 10.0667 28.9067C9.91999 28.9733 9.77332 29.0267 9.62666 29.08C9.10666 29.2533 8.54666 29.3333 7.99999 29.3333C7.63999 29.3333 7.27999 29.2933 6.93332 29.2267C6.75999 29.1867 6.58666 29.1467 6.41332 29.0933C6.19999 29.0267 5.99999 28.96 5.79999 28.8667C5.79999 28.8533 5.79999 28.8533 5.78666 28.8667C5.41332 28.68 5.05332 28.4667 4.71999 28.2133L4.70666 28.2C4.53332 28.0667 4.37332 27.9333 4.22666 27.7733C4.07999 27.6133 3.93332 27.4533 3.78666 27.28C3.53332 26.9467 3.31999 26.5867 3.13332 26.2133C3.14666 26.2 3.14666 26.2 3.13332 26.2C3.13332 26.2 3.13332 26.1867 3.11999 26.1733C3.03999 25.9867 2.97332 25.7867 2.90666 25.5867C2.85597 25.415 2.8115 25.2416 2.77332 25.0667C2.70666 24.72 2.66666 24.36 2.66666 24V6C2.66666 4.00001 3.99999 2.66667 5.99999 2.66667H9.99999C12 2.66667 13.3333 4.00001 13.3333 6Z" stroke="#2F3A4C" stroke-width="1.5" stroke-linecap="round" stroke-linejoin="round"/>
<path id="Vector_2" d="M29.3333 22V26C29.3333 28 28 29.3333 26 29.3333H8.00001C8.54668 29.3333 9.10668 29.2533 9.62668 29.08C9.77334 29.0267 9.92001 28.9733 10.0667 28.9067C10.5333 28.72 10.9867 28.4533 11.3867 28.1067C11.5067 28.0133 11.64 27.8933 11.76 27.7733L11.8133 27.72L20.88 18.6667H26C28 18.6667 29.3333 20 29.3333 22ZM6.41334 29.0933C5.61334 28.8533 4.85334 28.4133 4.22668 27.7733C3.58668 27.1467 3.14668 26.3867 2.90668 25.5867C3.16552 26.4104 3.61953 27.1594 4.23007 27.7699C4.84061 28.3805 5.58962 28.8345 6.41334 29.0933Z" stroke="#2F3A4C" stroke-width="1.5" stroke-linecap="round" stroke-linejoin="round"/>
<path id="Vector_3" d="M24.4933 15.0533L20.88 18.6667L11.8133 27.72C12.7467 26.76 13.3333 25.44 13.3333 24V11.12L16.9467 7.50667C18.36 6.09334 20.2533 6.09334 21.6667 7.50667L24.4933 10.3333C25.9067 11.7467 25.9067 13.64 24.4933 15.0533ZM7.99999 25.3333C8.35361 25.3333 8.69275 25.1929 8.9428 24.9428C9.19285 24.6928 9.33332 24.3536 9.33332 24C9.33332 23.6464 9.19285 23.3072 8.9428 23.0572C8.69275 22.8071 8.35361 22.6667 7.99999 22.6667C7.64637 22.6667 7.30723 22.8071 7.05718 23.0572C6.80713 23.3072 6.66666 23.6464 6.66666 24C6.66666 24.3536 6.80713 24.6928 7.05718 24.9428C7.30723 25.1929 7.64637 25.3333 7.99999 25.3333Z" stroke="#2F3A4C" stroke-width="1.5" stroke-linecap="round" stroke-linejoin="round"/>
</g>
</svg>
