<svg width="32" height="32" viewBox="0 0 32 32" fill="none" xmlns="http://www.w3.org/2000/svg">
<g id="Iconsax/Linear/colorfilter">
<path id="Vector" d="M18.6667 21.3333C18.6667 23.6933 17.64 25.8267 16 27.28C14.5404 28.6055 12.6383 29.3378 10.6667 29.3333C6.25332 29.3333 2.66666 25.7467 2.66666 21.3333C2.66666 17.6533 5.17332 14.5333 8.55999 13.6133C9.01899 14.7674 9.73958 15.7992 10.6651 16.6275C11.5905 17.4558 12.6956 18.058 13.8933 18.3867C14.56 18.5733 15.2667 18.6667 16 18.6667C16.7333 18.6667 17.44 18.5733 18.1067 18.3867C18.4667 19.2933 18.6667 20.2933 18.6667 21.3333Z" stroke="#2F3A4C" stroke-width="1.5" stroke-linecap="round" stroke-linejoin="round"/>
<path id="Vector_2" d="M24 10.6667C24.0021 12.4221 23.426 14.1294 22.3608 15.5248C21.2956 16.9202 19.8006 17.9259 18.1067 18.3867C17.44 18.5733 16.7333 18.6667 16 18.6667C15.2667 18.6667 14.56 18.5733 13.8933 18.3867C12.1994 17.9259 10.7044 16.9202 9.63917 15.5248C8.57398 14.1294 7.99792 12.4221 8.00001 10.6667C8.00001 6.25334 11.5867 2.66667 16 2.66667C20.4133 2.66667 24 6.25334 24 10.6667Z" stroke="#2F3A4C" stroke-width="1.5" stroke-linecap="round" stroke-linejoin="round"/>
<path id="Vector_3" d="M29.3333 21.3333C29.3333 25.7467 25.7467 29.3333 21.3333 29.3333C19.3617 29.3378 17.4596 28.6055 16 27.28C17.64 25.8267 18.6667 23.6933 18.6667 21.3333C18.6667 20.2933 18.4667 19.2933 18.1067 18.3867C20.5467 17.72 22.52 15.9333 23.44 13.6133C26.8267 14.5333 29.3333 17.6533 29.3333 21.3333Z" stroke="#2F3A4C" stroke-width="1.5" stroke-linecap="round" stroke-linejoin="round"/>
</g>
</svg>
