<svg width="18" height="17" viewBox="0 0 18 17" fill="none" xmlns="http://www.w3.org/2000/svg">
<g id="upload-cloud">
<path id="Icon" d="M12.23 11.3884L9.50294 8.49911M9.50294 8.49911L6.77592 11.3884M9.50294 8.49911V15M15.2229 13.1147C15.8878 12.7307 16.4131 12.1229 16.7158 11.3874C17.0186 10.6519 17.0815 9.83052 16.8947 9.05291C16.7079 8.2753 16.282 7.58575 15.6842 7.09308C15.0864 6.60041 14.3508 6.33268 13.5935 6.33215H12.7345C12.5281 5.48649 12.1435 4.70139 11.6095 4.03589C11.0756 3.37038 10.4062 2.84179 9.65163 2.48984C8.8971 2.1379 8.07708 1.97176 7.25323 2.00392C6.42937 2.03608 5.62312 2.2657 4.89508 2.67552C4.16704 3.08534 3.53616 3.66469 3.04987 4.37002C2.56358 5.07536 2.23454 5.88831 2.08748 6.74777C1.94042 7.60723 1.97916 8.49083 2.20081 9.33214C2.42245 10.1734 2.82122 10.9506 3.36715 11.6051" stroke="#475467" stroke-width="1.66667" stroke-linecap="round" stroke-linejoin="round"/>
</g>
</svg>
