<svg width="18" height="18" viewBox="0 0 18 18" fill="none" xmlns="http://www.w3.org/2000/svg">
<path id="Vector" d="M17.3372 0.65383C16.9055 0.241047 16.3311 0.0106812 15.7337 0.0106812C15.1364 0.0106812 14.562 0.241047 14.1302 0.65383L11.575 3.20908C11.0975 3.69087 10.4502 3.96629 9.77199 3.97624C9.09376 3.9862 8.43865 3.72989 7.94725 3.26233C7.45584 2.79477 6.99765 3.76097 6.901 4.33933C6.76275 5.16664 8.41975 5.85808 8.41975 5.85808L1.51975 12.7581C1.11829 13.1553 0.857576 13.6728 0.777292 14.2318C0.697009 14.7908 0.801547 15.3607 1.075 15.8548C1.075 15.8548 -0.00275256 16.3357 0.000999451 16.9288C0.0047043 17.5145 0.475813 17.9856 1.0615 17.9893C1.65464 17.9931 2.1355 16.9153 2.1355 16.9153C2.62963 17.1888 3.19956 17.2933 3.75857 17.213C4.31758 17.1328 4.83505 16.872 5.23225 16.4706L12.1322 9.57058C12.1322 9.57058 12.8238 11.2281 13.651 11.0893C14.2285 10.9924 15.1942 10.5359 14.7265 10.0446C14.2588 9.55326 14.0023 8.89812 14.0123 8.21983C14.0222 7.54154 14.2978 6.8942 14.7797 6.41683L17.335 3.86158C17.7602 3.43639 17.999 2.85974 17.999 2.25845C17.999 1.65717 17.7602 1.08052 17.335 0.65533L17.3372 0.65383ZM4.171 15.4101C3.9567 15.6146 3.67186 15.7287 3.37562 15.7287C3.07939 15.7287 2.79454 15.6146 2.58025 15.4101C2.36934 15.1991 2.25086 14.913 2.25086 14.6147C2.25086 14.3164 2.36934 14.0303 2.58025 13.8193L9.48025 6.91933L11.071 8.51008L4.171 15.4101ZM16.276 2.79958L13.7207 5.35483C13.0479 6.02267 12.6275 6.90321 12.5312 7.84633L10.144 5.45908C11.0871 5.36282 11.9677 4.94243 12.6355 4.26958L15.1915 1.71433C15.3374 1.57452 15.5317 1.49647 15.7337 1.49647C15.9358 1.49647 16.1301 1.57452 16.276 1.71433C16.3474 1.78553 16.404 1.87011 16.4426 1.96322C16.4812 2.05633 16.5011 2.15615 16.5011 2.25695C16.5011 2.35776 16.4812 2.45758 16.4426 2.55069C16.404 2.6438 16.3474 2.72838 16.276 2.79958Z" fill="#3D5CFF"/>
</svg>
